<svg width="33" height="32" viewBox="0 0 33 32" fill="none" xmlns="http://www.w3.org/2000/svg">
<path d="M8.50004 17.5C8.50172 17.6318 8.477 17.7626 8.42734 17.8847C8.37768 18.0068 8.30408 18.1177 8.21089 18.2109C8.11769 18.3041 8.00678 18.3776 7.8847 18.4273C7.76262 18.477 7.63183 18.5017 7.50004 18.5H2.00004C1.81426 18.4985 1.63239 18.4465 1.47387 18.3497C1.31534 18.2528 1.18613 18.1146 1.10004 17.95C1.01999 17.7824 0.987004 17.5961 1.00462 17.4112C1.02223 17.2262 1.08978 17.0495 1.20004 16.9C2.08502 15.712 3.26593 14.7768 4.62504 14.1875C4.04103 13.6529 3.59233 12.9873 3.31585 12.2454C3.03938 11.5035 2.94304 10.7065 3.03477 9.92011C3.1265 9.1337 3.40367 8.38031 3.84347 7.72196C4.28327 7.0636 4.87313 6.5191 5.5645 6.13327C6.25587 5.74744 7.02898 5.53131 7.82021 5.50266C8.61143 5.47402 9.39815 5.63368 10.1156 5.96851C10.8331 6.30334 11.4607 6.80376 11.947 7.42859C12.4333 8.05342 12.7642 8.78479 12.9125 9.56251C12.9495 9.76507 12.9239 9.97408 12.839 10.1617C12.7541 10.3493 12.6141 10.5066 12.4375 10.6125C10.8208 11.5712 9.59123 13.0662 8.96254 14.8375C8.65262 15.6908 8.49605 16.5922 8.50004 17.5ZM31.8 16.9C30.9151 15.712 29.7341 14.7768 28.375 14.1875C28.959 13.6529 29.4078 12.9873 29.6842 12.2454C29.9607 11.5035 30.057 10.7065 29.9653 9.92011C29.8736 9.1337 29.5964 8.38031 29.1566 7.72196C28.7168 7.0636 28.1269 6.5191 27.4356 6.13327C26.7442 5.74744 25.9711 5.53131 25.1799 5.50266C24.3887 5.47402 23.6019 5.63368 22.8845 5.96851C22.167 6.30334 21.5393 6.80376 21.0531 7.42859C20.5668 8.05342 20.2359 8.78479 20.0875 9.56251C20.0506 9.76507 20.0762 9.97408 20.1611 10.1617C20.2459 10.3493 20.386 10.5066 20.5625 10.6125C22.1814 11.5687 23.4117 13.0646 24.0375 14.8375C24.3475 15.6908 24.504 16.5922 24.5 17.5C24.4984 17.6318 24.5231 17.7626 24.5727 17.8847C24.6224 18.0068 24.696 18.1177 24.7892 18.2109C24.8824 18.3041 24.9933 18.3776 25.1154 18.4273C25.2375 18.477 25.3683 18.5017 25.5 18.5H31C31.1858 18.5 31.3678 18.4483 31.5258 18.3507C31.6837 18.253 31.8114 18.1133 31.8945 17.9472C31.9775 17.7811 32.0127 17.5952 31.996 17.4102C31.9793 17.2252 31.9115 17.0486 31.8 16.9ZM20.15 22.2625C21.1453 21.4997 21.8765 20.4442 22.241 19.2445C22.6055 18.0447 22.5849 16.7608 22.1821 15.5733C21.7794 14.3858 21.0147 13.3543 19.9956 12.6238C18.9764 11.8933 17.754 11.5004 16.5 11.5004C15.2461 11.5004 14.0237 11.8933 13.0045 12.6238C11.9854 13.3543 11.2207 14.3858 10.8179 15.5733C10.4152 16.7608 10.3946 18.0447 10.7591 19.2445C11.1236 20.4442 11.8548 21.4997 12.85 22.2625C10.9057 23.1257 9.32939 24.6489 8.40004 26.5625C8.3261 26.7146 8.29298 26.8833 8.30393 27.052C8.31489 27.2208 8.36955 27.3838 8.46254 27.525C8.54909 27.6699 8.67176 27.7898 8.81857 27.8731C8.96537 27.9564 9.13127 28.0001 9.30004 28H23.7C23.8688 28.0001 24.0347 27.9564 24.1815 27.8731C24.3283 27.7898 24.451 27.6699 24.5375 27.525C24.6305 27.3838 24.6852 27.2208 24.6961 27.052C24.7071 26.8833 24.674 26.7146 24.6 26.5625C23.6707 24.6489 22.0944 23.1257 20.15 22.2625Z" fill="#00B37E"/>
</svg>
